<?xml version="1.0" encoding="UTF-8" standalone="no"?>
<svg
   height="24px"
   viewBox="0 -960 960 960"
   width="24px"
   fill="#e3e3e3"
   version="1.1"
   id="svg1"
   sodipodi:docname="fingerprint_24dp_E3E3E3_FILL0_wght400_GRAD0_opsz24.svg"
   inkscape:version="1.4.2 (f4327f4, 2025-05-13)"
   xmlns:inkscape="http://www.inkscape.org/namespaces/inkscape"
   xmlns:sodipodi="http://sodipodi.sourceforge.net/DTD/sodipodi-0.dtd"
   xmlns="http://www.w3.org/2000/svg"
   xmlns:svg="http://www.w3.org/2000/svg">
  <defs
     id="defs1" />
  <sodipodi:namedview
     id="namedview1"
     pagecolor="#ffffff"
     bordercolor="#000000"
     borderopacity="0.25"
     inkscape:showpageshadow="2"
     inkscape:pageopacity="0.0"
     inkscape:pagecheckerboard="0"
     inkscape:deskcolor="#d1d1d1"
     inkscape:zoom="33.625"
     inkscape:cx="11.98513"
     inkscape:cy="12"
     inkscape:window-width="1920"
     inkscape:window-height="1009"
     inkscape:window-x="-8"
     inkscape:window-y="-8"
     inkscape:window-maximized="1"
     inkscape:current-layer="svg1" />
  <path
     d="M481-781q106 0 200 45.5T838-604q7 9 4.5 16t-8.5 12q-6 5-14 4.5t-14-8.5q-55-78-141.5-119.5T481-741q-97 0-182 41.5T158-580q-6 9-14 10t-14-4q-7-5-8.5-12.5T126-602q62-85 155.5-132T481-781Zm0 94q135 0 232 90t97 223q0 50-35.5 83.5T688-257q-51 0-87.5-33.5T564-374q0-33-24.5-55.5T481-452q-34 0-58.5 22.5T398-374q0 97 57.5 162T604-121q9 3 12 10t1 15q-2 7-8 12t-15 3q-104-26-170-103.5T358-374q0-50 36-84t87-34q51 0 87 34t36 84q0 33 25 55.5t59 22.5q34 0 58-22.5t24-55.5q0-116-85-195t-203-79q-118 0-203 79t-85 194q0 24 4.5 60t21.5 84q3 9-.5 16T208-205q-8 3-15.5-.5T182-217q-15-39-21.5-77.5T154-374q0-133 96.5-223T481-687Zm0-192q64 0 125 15.5T724-819q9 5 10.5 12t-1.5 14q-3 7-10 11t-17-1q-53-27-109.5-41.5T481-839q-58 0-114 13.5T260-783q-8 5-16 2.5T232-791q-4-8-2-14.5t10-11.5q56-30 117-46t124-16Zm0 289q93 0 160 62.5T708-374q0 9-5.5 14.5T688-354q-8 0-14-5.5t-6-14.5q0-75-55.5-125.5T481-550q-76 0-130.5 50.5T296-374q0 81 28 137.5T406-123q6 6 6 14t-6 14q-6 6-14 6t-14-6q-59-62-90.5-126.5T256-374q0-91 66-153.5T481-590Zm-1 196q9 0 14.5 6t5.5 14q0 75 54 123t126 48q6 0 17-1t23-3q9-2 15.5 2.5T744-191q2 8-3 14t-13 8q-18 5-31.5 5.5t-16.5.5q-89 0-154.5-60T460-374q0-8 5.5-14t14.5-6Z"
     id="path1"
     style="stroke-width:1.0090364;stroke-dasharray:none;stroke:#de4d3e;stroke-opacity:0.80639702;opacity:1" />
  <path
     style="fill:#ff6600;fill-opacity:0.915825;stroke:#de4d3e;stroke-width:0.04695509;stroke-opacity:0.80639702;stroke-dasharray:none;opacity:1"
     d="M 6.0966543,4.4708068 C 5.8194172,4.3704986 5.6705153,4.0045122 5.8123225,3.771947 5.9348898,3.5709354 6.980326,3.0701045 8.0142914,2.7170628 11.185081,1.6344144 14.568344,1.859092 17.732102,3.3624085 c 0.419784,0.1994682 0.518416,0.2672293 0.590426,0.4056314 0.144087,0.2769295 -0.121406,0.7077965 -0.436132,0.7077965 -0.05542,0 -0.28577,-0.090573 -0.559098,-0.2198375 C 16.018835,3.6371919 14.767611,3.26666 13.3829,3.087923 12.78868,3.0112219 11.240112,3.0112917 10.64684,3.0880464 9.1457853,3.2822457 8.0835697,3.5990686 6.8847584,4.2101478 6.333551,4.4911189 6.2391174,4.522352 6.0966543,4.4708068 Z"
     id="path2"
     transform="matrix(40,0,0,40,0,-960)" />
  <path
     style="fill:#ff6600;fill-opacity:0.915825;stroke:#de4d3e;stroke-width:0.04695509;stroke-opacity:0.80639702;stroke-dasharray:none;opacity:1"
     d="M 14.468401,21.855066 C 13.923792,21.687808 13.592836,21.557733 13.115242,21.323234 12.345563,20.945323 11.704354,20.487863 11.082375,19.872915 9.7220972,18.528017 9.04125,16.939151 8.9767515,14.959108 c -0.024814,-0.761759 0.064933,-1.219942 0.3327709,-1.69888 0.5846822,-1.045509 1.8068876,-1.661214 3.0350986,-1.528977 0.804714,0.08664 1.414671,0.384577 1.95955,0.957151 0.52621,0.552957 0.730553,1.061084 0.786569,1.955911 0.03045,0.48637 0.108652,0.745255 0.317441,1.050828 0.21105,0.308882 0.579508,0.60334 0.948696,0.758161 0.564483,0.23672 1.348887,0.195967 1.873606,-0.09734 0.456304,-0.255065 0.769297,-0.62441 0.943744,-1.113659 0.07762,-0.217703 0.101311,-0.770195 0.05446,-1.27018 C 19.07916,12.376553 18.438705,11.049637 17.261785,9.8970397 15.594821,8.2645241 13.442789,7.5586831 11.033457,7.854222 9.8935548,7.9940473 8.9046816,8.3599003 7.9458156,8.9965556 6.4604475,9.9827908 5.4298158,11.384344 5.0404009,12.94762 4.8902443,13.550412 4.849992,13.908635 4.8511361,14.63197 c 0.00188,1.187725 0.1463604,2.094219 0.5148872,3.23045 0.082888,0.255558 0.1507053,0.507811 0.1507053,0.560561 0,0.33553 -0.3745915,0.563682 -0.6937129,0.422519 C 4.6531066,18.770341 4.6023738,18.689932 4.4448467,18.246113 4.1201204,17.331227 3.9439159,16.390384 3.8816897,15.239137 3.7727768,13.224139 4.2331673,11.601835 5.3326249,10.126394 5.6308144,9.7262323 6.3842578,8.9573376 6.796386,8.6326147 8.055812,7.6402915 9.4011593,7.0824911 10.975231,6.900005 11.458426,6.843987 12.515565,6.835846 12.966543,6.88467 c 1.967066,0.2129605 3.579962,0.9714257 4.99233,2.3476456 1.444704,1.4077284 2.186581,3.0732504 2.268682,5.0932114 0.02185,0.537648 -0.01486,0.868317 -0.139444,1.255988 -0.285119,0.887206 -1.105447,1.632618 -2.065806,1.877146 -0.514538,0.131013 -1.194395,0.129435 -1.680298,-0.0039 -0.966761,-0.265285 -1.781076,-0.997824 -2.082676,-1.873528 -0.08066,-0.234212 -0.14754,-0.658532 -0.147687,-0.937071 -1.38e-4,-0.260449 -0.0805,-0.606297 -0.195419,-0.840987 -0.174355,-0.35608 -0.558811,-0.724884 -0.948818,-0.910189 -0.515386,-0.244877 -1.200509,-0.268639 -1.749672,-0.06068 -0.42138,0.159566 -0.888076,0.577689 -1.077112,0.965008 -0.1548916,0.317359 -0.1927024,0.507433 -0.1924237,0.967303 7.33e-4,1.209312 0.3281007,2.365877 0.9286547,3.280868 0.84545,1.288109 2.210828,2.284268 3.888945,2.837317 0.220818,0.07277 0.432238,0.152226 0.469822,0.176561 0.111956,0.07249 0.18422,0.220096 0.184342,0.37654 1.46e-4,0.186551 -0.05549,0.312808 -0.189802,0.430737 -0.09425,0.08275 -0.131217,0.096 -0.264653,0.09483 -0.08953,-7.86e-4 -0.299687,-0.04577 -0.497107,-0.106397 z"
     id="path3"
     transform="matrix(40,0,0,40,0,-960)" />
  <path
     style="fill:#ff00ff;fill-opacity:0.915825;stroke:#de4d3e;stroke-width:0.04695509;stroke-opacity:0.80639702;stroke-dasharray:none;opacity:1"
     d="M 3.3295875,9.6843741 C 3.214003,9.6138882 3.0833577,9.4589445 3.0595591,9.3641231 3.0082851,9.1598311 3.1042615,8.9939325 3.6508791,8.3420074 5.3763855,6.2840769 7.8733154,4.929643 10.587361,4.5793844 c 0.78771,-0.1016571 2.059946,-0.1074962 2.805807,-0.012877 1.379137,0.1749552 2.528516,0.5193544 3.730232,1.1177239 0.997969,0.4969185 1.826588,1.0817369 2.602571,1.8368293 0.553384,0.5384869 1.216701,1.3273172 1.314342,1.5630448 0.121185,0.2925653 -0.286914,0.6869484 -0.618458,0.5976728 C 20.289546,9.6461508 20.25682,9.6136874 19.9618,9.2254117 18.930077,7.8675613 17.615508,6.8785773 15.96706,6.2200651 14.652603,5.6949736 13.480192,5.4738193 12.01487,5.4745552 10.813239,5.4751587 9.8661725,5.6199748 8.7958778,5.9667717 6.8571616,6.594955 5.2632534,7.7285799 4.05083,9.3415613 3.8129178,9.6580746 3.7037826,9.7398712 3.519669,9.7396657 3.464892,9.7396048 3.3793553,9.7147233 3.3295875,9.6843741 Z"
     id="path4"
     transform="matrix(40,0,0,40,0,-960)" />
  <path
     style="fill:#ff00ff;fill-opacity:0.915825;stroke:#de4d3e;stroke-width:0.04695509;stroke-opacity:0.80639702;stroke-dasharray:none;opacity:1"
     d="M 9.5762082,21.700011 C 9.4051141,21.595664 8.7491023,20.843198 8.288568,20.223048 7.0886537,18.607258 6.574008,17.252483 6.4357926,15.345725 c -0.1341485,-1.850654 0.3501,-3.253455 1.5272254,-4.42416 1.2382319,-1.231478 2.878775,-1.8015955 4.678657,-1.6259153 1.32871,0.1296909 2.473141,0.6619665 3.442462,1.6010913 1.006321,0.974973 1.532276,2.121364 1.584072,3.452701 0.01905,0.489611 -0.0059,0.580676 -0.193053,0.705727 -0.140793,0.09406 -0.400591,0.09429 -0.539782,4.92e-4 -0.173032,-0.116606 -0.206149,-0.210025 -0.236975,-0.668486 -0.04148,-0.616957 -0.147938,-1.057562 -0.375115,-1.552583 -0.334259,-0.728352 -1.104928,-1.53753 -1.878894,-1.972778 -0.713889,-0.401463 -1.361156,-0.578004 -2.226253,-0.607208 -1.13194,-0.03821 -1.991399,0.195398 -2.8649771,0.778729 -1.0054165,0.671366 -1.6695763,1.640248 -1.8895701,2.756521 -0.06717,0.340825 -0.088596,1.111359 -0.045689,1.64305 0.081897,1.014842 0.2807725,1.82862 0.6279331,2.569442 0.4040412,0.862201 1.162503,1.939268 1.9679581,2.794633 0.225956,0.239957 0.261301,0.30681 0.261301,0.494237 0,0.338261 -0.4157752,0.581457 -0.6988848,0.408793 z"
     id="path5"
     transform="matrix(40,0,0,40,0,-960)" />
  <path
     style="fill:#ff00ff;fill-opacity:0.915825;stroke:#de4d3e;stroke-width:0.04695509;stroke-opacity:0.80639702;stroke-dasharray:none;opacity:1"
     d="m 16.345193,19.876786 c -2.145607,-0.224279 -4.060635,-1.764973 -4.625165,-3.721075 -0.129988,-0.450411 -0.176571,-0.777546 -0.17886,-1.256083 -0.002,-0.4268 9.66e-4,-0.450228 0.06954,-0.541619 0.187748,-0.250231 0.592147,-0.250763 0.776788,-10e-4 0.06043,0.08173 0.07496,0.153943 0.107586,0.534457 0.04673,0.54505 0.08054,0.734796 0.1949,1.093687 0.279355,0.876713 0.850525,1.602721 1.718944,2.184931 0.484158,0.324591 1.116729,0.582353 1.695167,0.690751 0.375411,0.07035 1.341624,0.07145 1.761617,0.002 0.332482,-0.05498 0.444929,-0.03735 0.565634,0.08867 0.09486,0.09904 0.17089,0.272054 0.17089,0.388887 0,0.116399 -0.11153,0.27348 -0.248877,0.350523 -0.325051,0.182332 -1.235736,0.266632 -2.00816,0.185891 z"
     id="path6"
     transform="matrix(40,0,0,40,0,-960)" />
</svg>
